# Blender v2.78 (sub 0) OBJ File: 'hexagon_2.blend'
# www.blender.org
mtllib hexagon_2.mtl
o Cylinder
v 0.019588 -0.020026 -1.013656
v 0.019588 0.527143 -1.013656
v 0.885614 -0.020026 -0.513655
v 0.885614 0.527143 -0.513655
v 0.885614 -0.020026 0.486345
v 0.885614 0.527143 0.486345
v 0.019588 -0.020026 0.986345
v 0.019588 0.527143 0.986345
v -0.846437 -0.020026 0.486344
v -0.846437 0.527143 0.486344
v -0.846437 -0.020026 -0.513655
v -0.846437 0.527143 -0.513655
vt 0.3777 0.1793
vt 0.6223 0.1793
vt 0.6223 0.8207
vt 0.3777 0.8207
vt 0.3777 0.1793
vt 0.6223 0.1793
vt 0.6223 0.8207
vt 0.3777 0.8207
vt 0.3777 0.1793
vt 0.6223 0.1793
vt 0.6223 0.8207
vt 0.3777 0.8207
vt 0.3777 0.1793
vt 0.6223 0.1793
vt 0.6223 0.8207
vt 0.3777 0.8207
vt 0.3777 0.1793
vt 0.6223 0.1793
vt 0.6223 0.8207
vt 0.3777 0.8207
vt 0.3777 0.1793
vt 0.6223 0.1793
vt 0.6223 0.8207
vt 0.3777 0.8207
vt 0.5000 1.0000
vt 0.9330 0.7500
vt 0.9330 0.2500
vt 0.5000 0.0000
vt 0.0670 0.2500
vt 0.0670 0.7500
vt 0.5000 1.0000
vt 0.9330 0.7500
vt 0.9330 0.2500
vt 0.5000 0.0000
vt 0.0670 0.2500
vt 0.0670 0.7500
vn 0.5000 0.0000 -0.8660
vn 1.0000 0.0000 0.0000
vn 0.5000 0.0000 0.8660
vn -0.5000 0.0000 0.8660
vn -1.0000 0.0000 0.0000
vn -0.5000 0.0000 -0.8660
vn 0.0000 -1.0000 0.0000
vn 0.0000 1.0000 0.0000
usemtl Material3
s off
f 1/1/1 2/2/1 4/3/1 3/4/1
f 3/5/2 4/6/2 6/7/2 5/8/2
f 5/9/3 6/10/3 8/11/3 7/12/3
f 7/13/4 8/14/4 10/15/4 9/16/4
f 9/17/5 10/18/5 12/19/5 11/20/5
f 11/21/6 12/22/6 2/23/6 1/24/6
f 1/25/7 3/26/7 5/27/7 7/28/7 9/29/7 11/30/7
usemtl Material3_Grey_Stones.png
f 4/31/8 2/32/8 12/33/8 10/34/8 8/35/8 6/36/8
