# Blender v2.78 (sub 0) OBJ File: 'hexagon.blend'
# www.blender.org
mtllib hexagon.mtl
o Cylinder
v -0.006650 0.153594 0.740386
v -0.642022 0.153594 -0.360111
v -0.006650 0.153594 -0.726943
v 0.628722 0.153594 0.088978
v 0.628722 0.153594 0.373554
v -0.642022 0.153594 0.373553
v 0.628722 0.153594 -0.360111
v 0.000000 -0.273585 -1.000000
v 0.000000 0.273585 -1.000000
v 0.866025 -0.273585 -0.500000
v 0.866025 0.273585 -0.500000
v 0.866025 -0.273585 0.500000
v 0.866025 0.273585 0.500000
v -0.000000 -0.273585 1.000000
v -0.000000 0.273585 1.000000
v -0.866025 -0.273585 0.500000
v -0.866025 0.273585 0.500000
v -0.866025 -0.273585 -0.500000
v -0.866025 0.273585 -0.500000
v 0.628722 0.273585 0.373554
v 0.628722 0.273585 0.193461
v -0.006650 0.273585 0.740386
v -0.642022 0.273585 0.373553
v -0.642022 0.273585 0.112015
v 0.628722 0.273585 -0.360111
v -0.642022 0.273585 -0.360111
v -0.006650 0.273585 -0.726943
vt 0.4232 0.8207
vt 0.4963 0.8207
vt 0.4963 0.1793
vt 0.4232 0.1793
vt 0.4232 0.8207
vt 0.4963 0.8207
vt 0.4963 0.6633
vt 0.4963 0.1793
vt 0.4232 0.1793
vt 0.4232 0.5719
vt 0.4232 0.8207
vt 0.4963 0.8207
vt 0.4963 0.1793
vt 0.4232 0.1793
vt 0.4232 0.8207
vt 0.4963 0.8207
vt 0.4963 0.1793
vt 0.4232 0.1793
vt 0.4232 0.8207
vt 0.4963 0.8207
vt 0.4963 0.4079
vt 0.4963 0.1793
vt 0.4232 0.1793
vt 0.4232 0.8207
vt 0.4963 0.8207
vt 0.4963 0.1793
vt 0.4232 0.1793
vt 0.3777 0.1793
vt 0.6223 0.1793
vt 0.6223 0.8207
vt 0.3777 0.8207
vt 0.3777 0.1793
vt 0.6223 0.1793
vt 0.6223 0.8207
vt 0.3777 0.8207
vt 0.3777 0.1793
vt 0.6223 0.1793
vt 0.6223 0.8207
vt 0.3777 0.8207
vt 0.3777 0.1793
vt 0.6223 0.1793
vt 0.6223 0.8207
vt 0.3777 0.8207
vt 0.3777 0.1793
vt 0.6223 0.1793
vt 0.6223 0.8207
vt 0.3777 0.8207
vt 0.3777 0.1793
vt 0.6223 0.1793
vt 0.6223 0.8207
vt 0.3777 0.8207
vt 0.5000 1.0000
vt 0.9330 0.7500
vt 0.9330 0.2500
vt 0.5000 0.0000
vt 0.0670 0.2500
vt 0.0670 0.7500
vt 0.4988 0.1286
vt 0.1811 0.3120
vt 0.1811 0.6789
vt 0.3043 0.7500
vt 0.4988 0.8623
vt 0.8164 0.6789
vt 0.8164 0.3120
vt 0.5000 1.0000
vt 0.9330 0.7500
vt 0.9330 0.2500
vt 0.5000 0.0000
vt 0.6120 0.1940
vt 0.8164 0.3120
vt 0.8164 0.6789
vt 0.4988 0.8623
vt 0.2590 0.7239
vt 0.0670 0.7500
vt 0.1811 0.6789
vt 0.1811 0.3120
vt 0.4988 0.1286
vt 0.0670 0.2500
vn 0.5000 0.0000 -0.8660
vn -1.0000 0.0000 0.0000
vn -0.5000 0.0000 0.8660
vn 0.5000 0.0000 0.8660
vn 1.0000 0.0000 0.0000
vn -0.5000 0.0000 -0.8660
vn 0.0000 -1.0000 0.0000
vn 0.0000 1.0000 0.0000
usemtl Material.rust
s off
f 6/1/1 23/2/1 22/3/1 1/4/1
f 5/5/2 20/6/2 21/7/2 25/8/2 7/9/2 4/10/2
f 7/11/3 25/12/3 27/13/3 3/14/3
f 3/15/4 27/16/4 26/17/4 2/18/4
f 2/19/5 26/20/5 24/21/5 23/22/5 6/23/5
f 1/24/6 22/25/6 20/26/6 5/27/6
f 8/28/1 9/29/1 11/30/1 10/31/1
f 10/32/5 11/33/5 13/34/5 12/35/5
f 12/36/4 13/37/4 15/38/4 14/39/4
f 14/40/3 15/41/3 17/42/3 16/43/3
f 16/44/2 17/45/2 19/46/2 18/47/2
f 18/48/6 19/49/6 9/50/6 8/51/6
f 8/52/7 10/53/7 12/54/7 14/55/7 16/56/7 18/57/7
usemtl Material.rust_sand.png
f 6/58/8 1/59/8 5/60/8 4/61/8 7/62/8 3/63/8 2/64/8
usemtl Material.rust_rust_steel.bmp
f 11/65/8 9/66/8 19/67/8 17/68/8 24/69/8 26/70/8 27/71/8 25/72/8 21/73/8 13/74/8
f 13/74/8 21/73/8 20/75/8 22/76/8 23/77/8 24/69/8 17/68/8 15/78/8
